<svg xmlns="http://www.w3.org/2000/svg" version="1.1" xmlns:xlink="http://www.w3.org/1999/xlink" xmlns:svgjs="http://svgjs.com/svgjs" width="1440" height="560" preserveAspectRatio="none" viewBox="0 0 1440 560"><g mask="url(&quot;#SvgjsMask1000&quot;)" fill="none"><rect width="1440" height="560" x="0" y="0" fill="#0e2a47"></rect><path d="M0,559.563C106.394,556.604,211.281,525.34,297.575,463.036C381.249,402.623,446.393,316.04,474.735,216.804C501.13,124.387,459.618,30.99,448.227,-64.445C436.493,-162.753,472.272,-278.227,406.785,-352.481C341.288,-426.746,220.382,-399.205,126.153,-429.637C28.402,-461.207,-58.16,-562.674,-156.957,-534.548C-255.657,-506.45,-286.999,-382.987,-342.015,-296.358C-388.902,-222.528,-447.242,-152.529,-454.899,-65.405C-462.372,19.632,-405.598,92.674,-383.45,175.116C-355.743,278.247,-383.817,404.278,-308.405,479.887C-231.874,556.617,-108.33,562.575,0,559.563" fill="#0b2239"></path><path d="M1440 925.6669999999999C1518.372 918.607 1599.862 952.957 1671.21 919.769 1746.319 884.832 1803.002 816.8389999999999 1836.673 741.154 1870.167 665.867 1877.262 580.019 1858.003 499.9 1839.6770000000001 423.661 1783.406 366.19 1732.254 306.76099999999997 1680.933 247.135 1629.883 188.19099999999997 1559.483 153.077 1479.171 113.019 1387.379 62.68599999999998 1302.737 92.52600000000001 1218.101 122.363 1194.529 228.856 1140.748 300.697 1091.554 366.40999999999997 1009.781 415.23900000000003 1000.127 496.756 990.506 577.995 1061.729 642.98 1091.174 719.304 1123.065 801.971 1104.117 918.8679999999999 1180.376 963.983 1257.222 1009.4449999999999 1351.073 933.677 1440 925.6669999999999" fill="#113255"></path></g><defs><mask id="SvgjsMask1000"><rect width="1440" height="560" fill="#ffffff"></rect></mask></defs></svg>